<?xml version="1.0" encoding="UTF-8"?>
<svg width="7px" height="16px" viewBox="0 0 14 32" version="1.1" xmlns="http://www.w3.org/2000/svg" xmlns:xlink="http://www.w3.org/1999/xlink">
    <title>Icon</title>
    <g id="Icon" stroke="none" stroke-width="1" fill="none" fill-rule="evenodd">
        <path d="M12,0 C13.1045695,-2.02906125e-16 14,0.8954305 14,2 L14,22 C14,23.1045695 13.1045695,24 12,24 L11,24 L11,30 C11,31.1045695 10.1045695,32 9,32 L5,32 C3.8954305,32 3,31.1045695 3,30 L3,24 L2,24 C0.8954305,24 1.3527075e-16,23.1045695 0,22 L0,2 C-1.3527075e-16,0.8954305 0.8954305,-4.63227689e-16 2,0 L12,0 Z M7,7 C3.6862915,7 1,9.6862915 1,13 C1,16.3137085 3.6862915,19 7,19 C10.3137085,19 13,16.3137085 13,13 C13,9.6862915 10.3137085,7 7,7 Z M7,1 C6.17157288,1 5.5,1.67157288 5.5,2.5 C5.5,3.32842712 6.17157288,4 7,4 C7.82842712,4 8.5,3.32842712 8.5,2.5 C8.5,1.67157288 7.82842712,1 7,1 Z" id="Combined-Shape" fill="#000000"></path>
        <polygon id="Path" fill="#000000" points="7.35944774 12.7957824 5.58388637 9 3.5 9 6.22924953 15.0674494 5.08250074 18 7.20483927 18 11.0788066 9.07284453 8.89203068 9.07284453"></polygon>
    </g>
</svg>